<svg width="53" height="51" viewBox="0 0 53 51" fill="none" xmlns="http://www.w3.org/2000/svg">
<path opacity="0.2" d="M33 26.0001C33 27.1867 32.6481 28.3468 31.9888 29.3335C31.3295 30.3202 30.3925 31.0892 29.2961 31.5433C28.1997 31.9975 26.9933 32.1163 25.8295 31.8848C24.6656 31.6533 23.5965 31.0818 22.7574 30.2427C21.9182 29.4036 21.3468 28.3345 21.1153 27.1706C20.8838 26.0067 21.0026 24.8003 21.4567 23.704C21.9109 22.6076 22.6799 21.6705 23.6666 21.0112C24.6533 20.352 25.8133 20.0001 27 20.0001C28.5913 20.0001 30.1174 20.6322 31.2426 21.7574C32.3679 22.8826 33 24.4088 33 26.0001Z" fill="#0FF1F6"/>
<path d="M45 32C43.2322 31.9991 41.5144 32.5866 40.1175 33.67L34.34 29.17C34.7762 28.1702 35.0009 27.0909 35 26C35 25.815 35 25.63 34.98 25.4475L38.2875 24.345C39.3339 25.9589 40.9267 27.1417 42.7742 27.6769C44.6216 28.212 46.6 28.0636 48.347 27.2589C50.094 26.4542 51.4926 25.0471 52.2866 23.2952C53.0806 21.5433 53.2168 19.564 52.6703 17.7199C52.1239 15.8757 50.9313 14.2902 49.3111 13.2537C47.6909 12.2172 45.7514 11.7992 43.8481 12.0761C41.9447 12.3531 40.2049 13.3065 38.9472 14.7617C37.6895 16.217 36.9983 18.0766 37 20C37 20.185 37 20.37 37.02 20.5525L33.7125 21.655C32.9875 20.5341 31.9934 19.6125 30.821 18.9741C29.6485 18.3357 28.335 18.0008 27 18C26.5586 18.0009 26.118 18.0377 25.6825 18.11L23.9725 14.25C25.4491 13.0703 26.4602 11.4058 26.8268 9.55174C27.1934 7.69764 26.8917 5.77364 25.9752 4.12073C25.0587 2.46783 23.5866 1.19277 21.8199 0.521561C20.0531 -0.149651 18.1057 -0.17367 16.3229 0.45376C14.5401 1.08119 13.037 2.31955 12.0801 3.94935C11.1231 5.57914 10.774 7.49512 11.0948 9.35769C11.4155 11.2203 12.3853 12.9091 13.8323 14.125C15.2793 15.3408 17.11 16.0051 19 16C19.4414 15.9991 19.882 15.9623 20.3175 15.89L22.0275 19.74C20.5774 20.8877 19.5709 22.5035 19.1801 24.311C18.7894 26.1186 19.0385 28.0058 19.885 29.65L13.4575 35.36C11.84 34.2696 9.88025 33.8065 7.94568 34.0575C6.01112 34.3086 4.23454 35.2566 2.94893 36.7238C1.66332 38.1911 0.956963 40.0768 0.962249 42.0276C0.967534 43.9784 1.6841 45.8603 2.97764 47.3205C4.27118 48.7808 6.05287 49.7191 7.98877 49.9597C9.92466 50.2003 11.8818 49.7266 13.4935 48.6273C15.1051 47.5281 16.2605 45.8789 16.7431 43.9887C17.2257 42.0986 17.0024 40.0973 16.115 38.36L22.5425 32.65C23.9342 33.5871 25.5858 34.0615 27.2627 34.0058C28.9395 33.9502 30.556 33.3673 31.8825 32.34L37.66 36.84C37.2252 37.8368 37.0005 38.9125 37 40C37 41.5823 37.4692 43.129 38.3483 44.4446C39.2273 45.7602 40.4767 46.7856 41.9385 47.3911C43.4004 47.9966 45.0089 48.155 46.5607 47.8463C48.1126 47.5376 49.538 46.7757 50.6569 45.6569C51.7757 44.5381 52.5376 43.1126 52.8463 41.5608C53.155 40.0089 52.9965 38.4004 52.391 36.9386C51.7855 35.4768 50.7602 34.2273 49.4446 33.3483C48.129 32.4692 46.5823 32 45 32ZM45 16C45.7911 16 46.5645 16.2346 47.2223 16.6742C47.8801 17.1137 48.3928 17.7384 48.6955 18.4693C48.9983 19.2002 49.0775 20.0045 48.9231 20.7804C48.7688 21.5563 48.3878 22.269 47.8284 22.8285C47.269 23.3879 46.5563 23.7688 45.7804 23.9232C45.0044 24.0775 44.2002 23.9983 43.4693 23.6956C42.7384 23.3928 42.1137 22.8801 41.6741 22.2223C41.2346 21.5645 41 20.7912 41 20C41 18.9392 41.4214 17.9218 42.1716 17.1716C42.9217 16.4215 43.9391 16 45 16ZM15 8.00003C15 7.20891 15.2346 6.43555 15.6741 5.77775C16.1137 5.11996 16.7384 4.60726 17.4693 4.30451C18.2002 4.00176 19.0044 3.92255 19.7804 4.07689C20.5563 4.23123 21.269 4.6122 21.8284 5.17161C22.3878 5.73102 22.7688 6.44375 22.9231 7.21967C23.0775 7.9956 22.9983 8.79986 22.6955 9.53077C22.3928 10.2617 21.8801 10.8864 21.2223 11.3259C20.5645 11.7654 19.7911 12 19 12C17.9391 12 16.9217 11.5786 16.1716 10.8285C15.4214 10.0783 15 9.0609 15 8.00003ZM9.00001 46C8.20888 46 7.43553 45.7654 6.77773 45.3259C6.11993 44.8864 5.60724 44.2617 5.30449 43.5308C5.00174 42.7999 4.92253 41.9956 5.07687 41.2197C5.23121 40.4437 5.61217 39.731 6.17158 39.1716C6.73099 38.6122 7.44373 38.2312 8.21965 38.0769C8.99557 37.9226 9.79984 38.0018 10.5307 38.3045C11.2616 38.6073 11.8864 39.12 12.3259 39.7778C12.7654 40.4355 13 41.2089 13 42C13 43.0609 12.5786 44.0783 11.8284 44.8285C11.0783 45.5786 10.0609 46 9.00001 46ZM23 26C23 25.2089 23.2346 24.4355 23.6741 23.7778C24.1137 23.12 24.7384 22.6073 25.4693 22.3045C26.2002 22.0018 27.0044 21.9226 27.7804 22.0769C28.5563 22.2312 29.269 22.6122 29.8284 23.1716C30.3878 23.731 30.7688 24.4437 30.9231 25.2197C31.0775 25.9956 30.9983 26.7999 30.6955 27.5308C30.3928 28.2617 29.8801 28.8864 29.2223 29.3259C28.5645 29.7654 27.7911 30 27 30C25.9391 30 24.9217 29.5786 24.1716 28.8285C23.4214 28.0783 23 27.0609 23 26ZM45 44C44.2089 44 43.4355 43.7654 42.7777 43.3259C42.1199 42.8864 41.6072 42.2617 41.3045 41.5308C41.0017 40.7999 40.9225 39.9956 41.0769 39.2197C41.2312 38.4437 41.6122 37.731 42.1716 37.1716C42.731 36.6122 43.4437 36.2312 44.2196 36.0769C44.9956 35.9226 45.7998 36.0018 46.5307 36.3045C47.2616 36.6073 47.8864 37.12 48.3259 37.7778C48.7654 38.4355 49 39.2089 49 40C49 41.0609 48.5786 42.0783 47.8284 42.8285C47.0783 43.5786 46.0609 44 45 44Z" fill="#0FF1F6"/>
</svg>
