<svg width="101" height="30" viewBox="0 0 101 30" fill="none" xmlns="http://www.w3.org/2000/svg">
<path d="M27.8133 4.76C26.7466 3.69333 25.5733 3.90667 24.72 4.33333C25.1466 3.48 25.36 2.30667 24.2933 1.24C22.8 -0.0399994 21.6266 0.813334 20.7733 1.24C17.7866 2.62667 16.1866 2.73333 14.2666 2.73333C12.3466 2.73333 10.7466 2.62667 7.75998 1.24C6.90665 0.813334 5.62665 -0.0399994 4.23998 1.24C3.17331 2.30667 3.38665 3.58667 3.81331 4.33333C2.95998 3.90667 1.78665 3.69333 0.719981 4.76C-0.560019 6.25333 0.293314 7.53333 0.719981 8.38667C2.10665 11.3733 2.21331 13.08 2.21331 15C2.21331 16.92 2.10665 18.6267 0.719981 21.6133C0.293314 22.4667 -0.560019 23.7467 0.719981 25.24C1.78665 26.3067 2.95998 26.0933 3.81331 25.6667C3.38665 26.52 3.17331 27.6933 4.23998 28.76C5.73331 30.04 6.90665 29.1867 7.75998 28.76C10.7466 27.3733 12.3466 27.2667 14.2666 27.2667C16.1866 27.2667 17.7866 27.3733 20.7733 28.76C21.6266 29.1867 22.9066 30.04 24.2933 28.76C25.36 27.6933 25.1466 26.52 24.72 25.6667C25.5733 26.0933 26.7466 26.3067 27.8133 25.24C29.0933 23.7467 28.24 22.4667 27.8133 21.6133C26.4266 18.6267 26.32 16.92 26.32 15C26.32 13.08 26.4266 11.3733 27.8133 8.38667C28.24 7.53333 29.0933 6.25333 27.8133 4.76ZM17.36 17.0267L23.2266 23.96L16.1866 18.2C16.1866 18.2 15.2266 17.24 14.16 17.24C13.0933 17.24 12.1333 18.2 12.1333 18.2L5.19998 24.0667L10.96 17.1333C10.96 17.1333 11.92 16.1733 11.92 15.1067C11.92 14.04 10.96 13.08 10.96 13.08L5.19998 6.04L12.1333 11.9067C12.1333 11.9067 13.0933 12.8667 14.16 12.8667C15.2266 12.8667 16.1866 11.9067 16.1866 11.9067L23.12 6.04L17.2533 13.08C17.2533 13.08 16.2933 14.04 16.2933 15.1067C16.4 16.0667 17.36 17.0267 17.36 17.0267Z" fill="#96ACAF"/>
<path d="M74.2133 14.1466C74.5333 13.9333 79.5466 12.0133 79.12 7.53331C78.5866 1.77331 72.5066 2.19997 70.3733 2.19997H59.28V2.41331C60.4533 2.51998 60.9866 3.15997 60.9866 5.29331L60.88 24.92C60.88 26.84 60.0266 27.3733 58.96 27.5866V27.9066H73.68C75.6 27.9066 80.4 27.2666 80.6133 21.6133C80.8266 20.2266 80.4 15.64 74.2133 14.1466ZM72.1866 26.7333C70.8 27.0533 68.7733 26.9466 67.1733 26.9466C65.68 26.84 65.68 26.2 65.68 25.56C65.68 25.56 65.68 22.8933 65.7866 19.48C65.8933 13.1866 66.1066 4.22664 66.1066 4.11997C66.1066 3.26664 66.32 3.15997 67.0666 3.15997C67.6 3.15997 67.8133 3.15997 68.88 3.15997C70.2666 3.15997 74 3.26664 74.2133 8.38664C74.4266 13.5066 69.0933 14.1466 67.7066 14.2533C67.6 14.2533 67.6 14.4666 67.7066 14.4666C71.8666 14.68 75.92 16.1733 75.7066 21.72C75.7066 25.4533 73.5733 26.4133 72.1866 26.7333Z" fill="#96ACAF"/>
<path d="M92.4533 12.44C88.8267 11.5867 86.3733 10.84 86.3733 7.74665C86.3733 5.39999 88.1867 2.83999 92.4533 3.05332C95.9733 3.26665 97.7867 4.97332 98.2133 6.89332H98.5333L98.4267 2.30665H98.2133C98.1067 2.41332 98 2.51999 97.7867 2.62665C97.2533 2.83999 96.6133 2.62665 96.6133 2.62665C93.84 1.87999 90.4267 1.98665 90.4267 1.98665C86.5867 2.09332 82.32 3.37332 81.68 8.49332C81.2533 12.12 84.0267 14.1467 84.0267 14.1467C86.3733 16.1733 91.1733 16.8133 92.9867 17.56C95.2267 18.6267 95.3333 20.8667 95.2267 21.9333C94.9067 25.6667 92.1333 27.0533 88.8267 27.0533C85.4133 27.0533 83.92 25.56 83.28 25.0267C82.32 24.28 82.32 23.32 82.2133 22.7867H81.8933V27.6933H82.2133C82.4267 27.16 82.64 26.9467 83.28 27.16C86.8 28.12 89.36 28.2267 89.36 28.2267C95.44 28.44 99.8133 25.9867 100.133 20.9733C100.56 13.72 94.16 12.8667 92.4533 12.44Z" fill="#96ACAF"/>
<path d="M46.48 2.19997C45.3067 2.19997 34.5333 2.19997 34.5333 2.19997V2.51997C35.3867 2.62664 36.1333 3.26664 36.1333 4.11997C36.3467 6.99997 36.4533 24.6 36.0267 26.52C35.92 27.0533 35.0667 27.48 34.32 27.5866V27.9066H47.6533C52.88 27.9066 58.64 23 58.64 15C58.8533 5.82664 51.8133 2.09331 46.48 2.19997ZM48.9333 26.2C47.0133 26.84 44.9867 27.0533 42.5333 26.84C41.1467 26.7333 41.1467 25.88 41.1467 25.56C41.04 23.1066 41.04 6.35997 41.1467 4.22664C41.2533 3.0533 41.4667 3.15997 42.5333 3.15997C43.4933 3.15997 44.6667 3.26664 44.6667 3.26664C50.96 3.69331 53.3067 8.59997 53.7333 14.8933C54.2667 21.1866 51.28 25.3466 48.9333 26.2Z" fill="#96ACAF"/>
</svg>
