<svg width="114" height="20" viewBox="0 0 114 20" fill="none" xmlns="http://www.w3.org/2000/svg">
<path d="M6.65336 17.4666C9.00002 17.4666 11.3467 16.4 12.7334 14.5866L14.6534 15.9733C12.9467 18.1066 10.4934 19.3866 7.82669 19.7066C5.16002 20.0266 2.38669 19.28 0.253357 17.5733L1.74669 15.76C3.24002 16.8266 4.84002 17.4666 6.65336 17.4666ZM6.65336 2.53331C4.94669 2.53331 3.24002 3.06665 1.85336 4.13331L0.360023 2.31998C2.17336 0.933312 4.41336 0.186646 6.65336 0.186646C9.74669 0.186646 12.7334 1.57331 14.6534 4.02665L12.7334 5.41331C11.24 3.59998 9.00002 2.53331 6.65336 2.53331ZM13.48 6.47998L12.84 8.71998H4.73336L5.37336 6.47998H13.48ZM3.56002 13.52L4.20002 11.28H12.4134L11.7734 13.52H3.56002Z" fill="#96ACAF"/>
<path d="M20.0934 17.36C17.32 17.36 14.76 15.8667 13.3734 13.4133H21.3734L22.0134 11.1733H12.6267C12.4134 10.32 12.4134 9.46668 12.6267 8.61334H22.5467L23.1867 6.37334H13.3734C14.6534 3.92001 17.32 2.42668 20.0934 2.42668C21.8 2.42668 23.5067 2.96001 24.8934 4.02668L26.3867 2.21334C22.3334 -0.986657 16.36 -0.559991 12.7334 3.17334C9.1067 6.90668 9.1067 12.7733 12.7334 16.5067C16.36 20.24 22.2267 20.6667 26.3867 17.4667L24.8934 15.6533C23.5067 16.8267 21.8 17.36 20.0934 17.36Z" fill="#96ACAF"/>
<path d="M32.8934 16.08V3.49335H41.4267V4.98668H34.7067V8.93335H41.4267V10.4267H34.7067V14.3733H41.4267V15.8667H32.8934V16.08ZM75.3467 16.08V3.49335H83.88V4.98668H77.16V8.93335H83.88V10.4267H77.16V14.3733H83.88V15.8667H75.3467V16.08ZM69.16 12.7733L71.72 6.48002H73.64C73.1067 7.76002 71.1867 12.6667 70.44 14.3733C69.16 17.36 67.6667 18.96 66.0667 19.0667V17.4667C67.0267 17.1467 68.0934 15.8667 68.0934 14.6933L64.8934 6.48002H66.92L69.16 12.7733ZM92.84 12.4533C92.84 12.4533 92.84 8.40002 92.84 6.48002H94.6534V16.08H92.84V15.0133L92.52 15.3333C92.4134 15.5467 91.56 16.2934 89.8534 16.2934C87.08 16.2934 85.6934 14.9067 85.6934 12.0267V6.58668H87.5067V12.4533C87.5067 13.9467 88.4667 14.8 90.1734 14.8C91.4534 14.8 92.84 13.7333 92.84 12.4533ZM99.56 7.33335C100.093 6.48001 100.947 6.37335 102.013 6.37335C102.44 6.37335 102.867 6.37335 103.187 6.48002L102.653 8.18668C102.227 8.08001 101.8 8.08001 101.373 7.97335C99.88 7.97335 99.0267 9.04001 99.0267 10.8533V16.2934H97.2134V6.69335H99.0267V8.08002L99.56 7.33335ZM51.3467 7.76001V6.48002H53.16V16.08H51.3467V14.6933C51.3467 14.6933 50.7067 16.2934 47.9334 16.2934C45.16 16.2934 43.0267 14.16 43.0267 11.28C43.0267 8.40002 45.16 6.26668 47.9334 6.26668C49.32 6.26668 50.4934 6.80001 51.3467 7.76001ZM48.1467 14.8C50.0667 14.8 51.4534 13.3067 51.4534 11.3867C51.4534 9.36001 50.0667 7.97335 48.1467 7.97335C46.2267 7.97335 44.84 9.46668 44.84 11.3867C44.84 12.24 45.16 13.2 45.6934 13.84C46.44 14.3733 47.2934 14.6933 48.1467 14.8ZM60.2 10.4267C62.44 10.7467 63.5067 11.7067 63.5067 13.3067C63.5067 15.12 61.8 16.2934 59.0267 16.2934C57.64 16.2934 56.1467 15.9733 54.9734 15.2267L55.8267 13.9467C56.7867 14.5867 57.96 14.9067 59.1334 14.9067C60.7334 14.9067 61.6934 14.3733 61.6934 13.4133C61.6934 12.56 60.6267 12.3467 59.6667 12.1333L58.6 12.0267C56.36 11.7067 55.2934 10.7467 55.2934 9.36001C55.2934 7.54668 56.8934 6.37335 59.3467 6.37335C60.7334 6.26668 62.0134 6.58668 63.1867 7.22668L62.44 8.61335C61.48 8.18668 60.4134 7.86668 59.3467 7.86668C58.0667 7.86668 57.2134 8.40001 57.2134 9.25335C57.2134 10.2133 58.4934 10.32 59.1334 10.4267H60.2ZM108.627 6.26668C111.4 6.26668 113.747 8.50668 113.747 11.28C113.747 14.0533 111.507 16.2934 108.627 16.2934C105.853 16.2934 103.507 14.0533 103.507 11.28C103.507 8.50668 105.747 6.26668 108.627 6.26668ZM108.627 14.8C110.547 14.8 112.147 13.2 112.147 11.3867C112.147 9.46668 110.547 7.97335 108.627 7.97335C106.707 7.97335 105.107 9.57335 105.107 11.3867C105.107 13.2 106.707 14.8 108.627 14.8Z" fill="#96ACAF"/>
</svg>
