<svg width="98" height="18" viewBox="0 0 98 18" fill="none" xmlns="http://www.w3.org/2000/svg">
<path d="M12.9467 2.27999C13.48 3.02666 13.6933 3.87999 13.6933 4.83999C13.6933 5.69332 13.48 6.54666 12.9467 7.18666C12.6267 7.61332 12.2 7.93332 11.7733 8.14666C12.52 8.46666 13.2667 8.89332 13.6933 9.63999C14.6533 11.24 14.5467 13.16 13.5867 14.6533C13.2667 15.1867 12.84 15.6133 12.4133 15.9333C11.88 16.36 11.24 16.68 10.4933 16.7867C9.74667 17 8.89334 17 8.14668 17H0.680008V0.573325H8.57334C10.28 0.359991 11.88 0.999992 12.9467 2.27999ZM4.09334 3.45332V7.07999H8.14668C8.78668 7.07999 9.32001 6.97332 9.85334 6.65332C10.28 6.33332 10.6 5.79999 10.4933 5.15999C10.6 4.51999 10.1733 3.87999 9.64001 3.66666C9.00001 3.45332 8.36001 3.45332 7.72001 3.45332H4.09334ZM4.09334 9.74666V14.12H8.04001C8.57334 14.12 9.21334 14.0133 9.74668 13.8C10.4933 13.3733 10.92 12.6267 10.8133 11.7733C10.92 11.0267 10.4933 10.28 9.74668 10.0667C9.21334 9.85332 8.68001 9.74666 8.14668 9.74666H4.09334Z" fill="#96ACAF"/>
<path d="M21.6933 9.64001C22.12 9.64001 22.5466 9.53334 22.9733 9.32001C23.4 9.21334 23.72 8.89334 23.72 8.46667C23.72 8.04001 23.5067 7.61334 23.1867 7.40001C22.6533 7.18667 22.2267 7.08001 21.6933 7.08001C21.0533 6.97334 20.52 7.18667 20.0933 7.61334C19.88 7.93334 19.6667 8.36001 19.6667 8.68001H16.5733C16.5733 7.72001 16.8933 6.86667 17.4267 6.01334C18.4933 4.84001 20.2 4.20001 21.8 4.30667C23.08 4.30667 24.2533 4.52001 25.4267 5.16001C26.4933 5.69334 27.1333 6.86667 27.0267 8.14667V15.1867C27.0267 15.5067 27.0267 15.8267 27.24 16.04C27.3467 16.2533 27.56 16.36 27.6667 16.36V16.7867H24.1467C24.04 16.5733 23.9333 16.36 23.9333 16.04C23.8267 15.8267 23.8267 15.6133 23.8267 15.2933C23.4 15.72 22.8667 16.1467 22.3333 16.4667C21.5867 16.8933 20.7333 17.1067 19.9867 17.1067C19.0267 17.1067 17.96 16.7867 17.2133 16.1467C16.4667 15.5067 16.04 14.44 16.1467 13.48C16.1467 12.2 16.7867 10.92 17.96 10.28C18.8133 9.85334 19.7733 9.64001 20.7333 9.53334L21.6933 9.64001ZM23.72 11.0267C23.5067 11.1333 23.2933 11.24 23.08 11.3467C22.76 11.4533 22.5467 11.56 22.2267 11.56L21.5867 11.6667C21.0533 11.7733 20.6267 11.88 20.0933 12.0933C19.6667 12.3067 19.4533 12.84 19.3467 13.2667C19.24 13.8 19.4533 14.2267 19.7733 14.5467C20.0933 14.76 20.52 14.8667 20.84 14.8667C21.48 14.8667 22.2267 14.6533 22.76 14.2267C23.4 13.6933 23.72 12.84 23.72 11.9867V11.0267Z" fill="#96ACAF"/>
<path d="M36.9466 9.21332C36.84 8.78665 36.7333 8.35998 36.52 8.03998C36.0933 7.50665 35.4533 7.29331 34.8133 7.29331C33.8533 7.29331 32.8933 7.93332 32.5733 8.89332C32.36 9.63998 32.2533 10.3866 32.2533 11.1333C32.2533 11.88 32.36 12.6266 32.5733 13.2666C32.8933 14.2266 33.7466 14.8667 34.7066 14.76C35.3466 14.8667 35.88 14.6533 36.3066 14.12C36.6266 13.6933 36.84 13.16 36.9466 12.52H40.2533C40.1466 13.48 39.8266 14.44 39.1866 15.2933C38.12 16.68 36.52 17.5333 34.7066 17.4267C33.1066 17.5333 31.5066 16.8933 30.3333 15.72C29.3733 14.44 28.84 12.84 28.9466 11.24C28.84 9.53331 29.3733 7.82665 30.44 6.43998C31.5066 5.26665 33 4.62665 34.6 4.73332C35.88 4.62665 37.16 5.05331 38.3333 5.69331C39.4 6.54665 40.04 7.93332 40.04 9.31998L36.9466 9.21332Z" fill="#96ACAF"/>
<path d="M42.3867 0.573303H45.48V9.5333L49.5333 4.83997H53.48L49.1067 9.42664L53.6933 17H49.8533L46.8667 11.7733L45.48 13.16V17H42.3867V0.573303Z" fill="#96ACAF"/>
<path d="M55.2934 17V0.573303H58.7067V6.75997H65.1067V0.573303H68.6267V17H65.1067V9.63997H58.7067V17H55.2934Z" fill="#96ACAF"/>
<path d="M74.7066 4.83997V12.2C74.7066 12.7333 74.7066 13.2666 74.92 13.8C75.24 14.44 75.88 14.76 76.6266 14.76C77.5866 14.8666 78.44 14.3333 78.8666 13.3733C79.08 12.7333 79.1866 12.0933 79.1866 11.4533V4.83997H82.3866V17H79.2933V15.2933C79.1866 15.4 79.08 15.5066 79.08 15.6133C78.9733 15.8266 78.8666 15.9333 78.6533 16.04C78.2266 16.4666 77.6933 16.7866 77.16 17C76.6266 17.2133 76.0933 17.2133 75.56 17.2133C74.0666 17.4266 72.68 16.5733 71.9333 15.2933C71.5066 14.3333 71.4 13.2666 71.4 12.2V4.83997H74.7066Z" fill="#96ACAF"/>
<path d="M95.9334 6.22664C96.8934 7.50664 97.32 9.10664 97.32 10.7066C97.32 12.4133 96.8934 14.0133 95.9334 15.4C95.08 16.68 93.6934 17.32 92.2 17.32C91.3467 17.32 90.4934 17.1066 89.8534 16.68C89.4267 16.36 89 15.9333 88.68 15.5066V17H85.5867V0.573303H88.7867V6.43997C89.1067 5.90664 89.64 5.47997 90.1734 5.15997C90.8134 4.7333 91.6667 4.51997 92.4134 4.51997C93.6934 4.51997 94.9734 5.15997 95.9334 6.22664ZM93.2667 13.6933C93.8 12.9466 94.0134 11.9866 94.0134 11.0266C94.0134 10.28 93.9067 9.5333 93.6934 8.8933C93.3734 7.82664 92.4134 7.18664 91.3467 7.2933C90.28 7.18664 89.32 7.82664 89 8.8933C88.7867 9.5333 88.5734 10.28 88.68 11.0266C88.68 11.9866 88.8934 12.84 89.4267 13.5866C89.8534 14.2266 90.7067 14.6533 91.56 14.6533C92.0934 14.76 92.84 14.3333 93.2667 13.6933Z" fill="#96ACAF"/>
</svg>
