<svg width="108" height="18" viewBox="0 0 108 18" fill="none" xmlns="http://www.w3.org/2000/svg">
<path d="M16.3492 12.5848C15.1385 15.4781 12.0401 17.3187 8.94161 17.3187C4.36267 17.3187 0.668121 13.4897 0.668121 8.9436C0.668121 4.4293 4.40473 0.67627 8.85543 0.67627C12.0524 0.67627 15.2165 2.53842 16.4477 5.53941H13.065C12.5504 4.92688 11.9096 4.43261 11.1865 4.09035C10.4634 3.74809 9.67489 3.56589 8.87492 3.55619C5.95909 3.55619 3.62602 6.07702 3.62602 9.05133C3.62602 11.8728 6.04527 14.4377 8.89647 14.4377C10.4734 14.4377 11.8338 13.7267 12.9142 12.5848H16.3492ZM29.7177 4.98846H27.0912V6.68132C26.644 6.03153 26.0433 5.50219 25.3424 5.14029C24.6415 4.7784 23.8621 4.59514 23.0734 4.60679C21.3241 4.60679 19.8334 5.27163 18.6207 6.68132C17.5167 7.93609 17.0817 9.3109 17.0817 10.9668C17.0817 12.6228 17.6234 14.1699 18.5755 15.317C19.6149 16.5543 21.1282 17.3279 22.9852 17.3279C24.4975 17.3279 26.1821 16.5553 27.0891 15.317V16.9442H29.7156L29.7177 4.98846ZM27.006 10.9443C27.006 12.9962 25.5696 14.5352 23.5177 14.5147C21.5735 14.5352 19.975 13.0311 19.975 11.0756C19.975 8.98977 21.4442 7.39848 23.5608 7.42002C25.5922 7.3995 27.0163 8.94668 27.0163 10.9453M31.865 16.9432H34.5069V15.316C35.458 16.7267 36.9282 17.3269 38.5698 17.3269C40.2319 17.3269 41.8971 16.6087 42.9589 15.316C43.9131 14.1905 44.5184 12.4063 44.4979 10.9658C44.4979 7.61291 41.9843 4.6109 38.4857 4.6109C37.1252 4.6109 35.5924 5.08592 34.7491 6.25246V0.970726H31.8763L31.865 16.9432ZM38.1799 7.42002C40.2319 7.42002 41.6149 9.01029 41.6149 10.9884C41.6149 12.987 40.2093 14.5136 38.1799 14.5136C36.0192 14.5136 34.5716 12.9029 34.5716 10.817C34.5716 8.83998 36.2572 7.43131 38.1799 7.43131M46.121 0.970726H49.0019V16.9452H46.121V0.970726ZM63.1112 12.2216C63.1758 11.7681 63.262 11.3146 63.262 10.8612C63.262 7.54725 60.5534 4.60269 57.1339 4.60269C53.5409 4.60269 50.7779 7.51647 50.7779 11.0253C50.7779 14.5136 53.6045 17.3115 57.0897 17.3115C59.6239 17.3115 62.1006 15.6053 62.8311 13.4661H59.666C59.1017 14.0817 58.0634 14.4921 56.981 14.4921C55.5303 14.4921 54.2519 13.5841 53.821 12.2021L63.1112 12.2216ZM53.7779 9.67307C54.2108 8.31263 55.6831 7.42002 57.1123 7.42002C58.5846 7.42002 59.905 8.26953 60.3811 9.67307H53.7779ZM64.7538 0.970726H66.3594V15.4883H72.9626V16.9432H64.7548L64.7538 0.970726ZM84.746 5.13415H83.2132V7.3913C82.3278 5.70459 80.4513 4.8797 78.5963 4.8797C76.9568 4.8797 75.2957 5.46759 73.5023 7.3913C73.0683 7.78117 72.266 9.40221 72.266 10.9822C72.266 12.7777 73.0047 14.2695 73.4377 14.7455C74.951 16.465 76.8706 17.2079 78.6394 17.2079C80.4861 17.2079 82.3073 16.3902 83.2152 14.7455V16.9565H84.746V5.13415ZM78.5942 6.40841C81.2269 6.40841 83.2111 8.50653 83.2111 11.1238C83.2111 13.5903 81.0976 15.7099 78.6353 15.7099C76.1114 15.7099 73.8665 13.699 73.8665 11.093C73.8665 8.47678 76.0026 6.39918 78.5922 6.39918M86.5928 16.9473H88.1112V14.9312C89.0407 16.4568 91.1153 17.2089 92.8225 17.2089C94.5513 17.2089 96.0205 16.7759 97.6631 14.9312C98.3146 14.2171 99.0738 12.7028 99.0738 10.9945C99.0738 7.48979 96.1067 4.87457 92.6717 4.87457C90.9224 4.87457 88.9782 5.69535 88.1984 7.33897V0.970726H86.5928V16.9473ZM92.7138 6.40738C95.3505 6.40738 97.4671 8.35469 97.4671 11.0376C97.4671 13.6026 95.3926 15.7099 92.8215 15.7099C90.2278 15.7099 88.0886 13.7852 88.0886 11.1464C88.0886 9.84749 88.4128 8.76611 89.3424 7.83657C90.2278 6.92755 91.4385 6.40841 92.7127 6.40841M101.538 13.4538C101.528 13.7404 101.576 14.0262 101.678 14.2941C101.78 14.562 101.936 14.8066 102.134 15.0135C102.333 15.2205 102.571 15.3854 102.834 15.4987C103.098 15.612 103.381 15.6712 103.668 15.673C104.797 15.673 105.72 14.8758 105.72 13.7236C105.72 12.3016 104.604 11.7743 103.444 11.4603C102.692 11.2243 101.897 10.9863 101.312 10.4261C100.684 9.86596 100.358 9.02568 100.358 8.1854C100.358 6.26682 101.92 4.88381 103.767 4.88381C105.527 4.88381 107.022 6.35301 107.022 8.07665H105.43C105.43 7.04246 104.636 6.41764 103.603 6.41764C103.169 6.41764 102.752 6.59017 102.444 6.89736C102.136 7.20455 101.963 7.62129 101.962 8.05613C101.962 9.34886 102.993 9.69359 104.014 10.0055C105.774 10.5657 107.315 11.3187 107.315 13.4528C107.315 15.672 105.688 17.2058 103.499 17.2058C101.498 17.2058 99.8084 15.4565 99.9151 13.4528H101.519" fill="#96ACAF"/>
</svg>
